<?xml version="1.0" standalone="no"?>
<!DOCTYPE svg PUBLIC "-//W3C//DTD SVG 20010904//EN"
 "http://www.w3.org/TR/2001/REC-SVG-20010904/DTD/svg10.dtd">
<svg version="1.0" xmlns="http://www.w3.org/2000/svg"
 width="32.000000pt" height="32.000000pt" viewBox="0 0 32.000000 32.000000"
 preserveAspectRatio="xMidYMid meet">
<metadata>
Created by potrace 1.10, written by Peter Selinger 2001-2011
</metadata>
<g transform="translate(0.000000,32.000000) scale(0.100000,-0.100000)"
fill="#ff00ff" stroke="none">
<path d="M270 300 c-14 -11 -20 -20 -14 -20 6 0 19 9 29 20 23 25 17 25 -15 0z"/>
<path d="M20 305 c0 -2 10 -10 23 -16 20 -11 21 -11 8 4 -13 16 -31 23 -31 12z"/>
<path d="M80 279 c-10 -17 -9 -23 1 -30 19 -12 29 -11 29 2 0 5 -5 7 -12 3 -7
-4 -8 -3 -4 4 4 7 14 12 22 12 20 0 12 24 -9 28 -8 2 -21 -7 -27 -19z"/>
<path d="M160 290 c-13 -9 -13 -11 0 -20 19 -13 33 -13 25 0 -9 14 8 13 23 -2
15 -15 26 -4 19 17 -7 17 -44 20 -67 5z"/>
<path d="M285 280 c-16 -11 -25 -20 -20 -20 10 0 64 39 55 40 -3 0 -18 -9 -35
-20z"/>
<path d="M10 286 c0 -3 9 -10 20 -16 11 -6 20 -8 20 -6 0 3 -9 10 -20 16 -11
6 -20 8 -20 6z"/>
<path d="M0 256 c0 -2 7 -7 16 -10 8 -3 12 -2 9 4 -6 10 -25 14 -25 6z"/>
<path d="M130 256 c0 -2 7 -6 15 -10 8 -3 15 -1 15 4 0 6 -7 10 -15 10 -8 0
-15 -2 -15 -4z"/>
<path d="M280 250 c-13 -9 -13 -10 0 -10 8 0 22 5 30 10 13 9 13 10 0 10 -8 0
-22 -5 -30 -10z"/>
<path d="M120 231 c0 -3 -11 -11 -24 -17 -21 -10 -24 -9 -19 5 4 11 1 10 -10
-4 -12 -16 -13 -23 -4 -35 7 -8 12 -29 12 -47 0 -17 3 -29 8 -26 5 3 6 16 3
29 -7 25 3 31 21 13 8 -8 13 -8 17 0 11 17 -4 33 -25 28 -29 -8 -23 12 7 23
31 12 84 13 102 2 9 -6 11 -27 8 -73 -3 -35 -6 -68 -6 -74 0 -5 -5 -2 -11 8
-6 10 -8 25 -5 33 3 9 -3 16 -18 20 -34 8 -71 1 -72 -13 -1 -7 -2 -20 -3 -28
0 -8 -7 -14 -13 -13 -7 2 -13 -4 -13 -12 0 -8 5 -14 11 -13 7 1 10 -6 7 -17
-6 -22 7 -26 25 -8 9 9 15 9 24 0 18 -18 33 -15 17 4 -7 8 -21 13 -31 11 -10
-3 -18 0 -18 8 0 7 14 15 30 17 22 3 30 1 30 -11 0 -9 5 -23 11 -31 8 -12 9
-12 7 5 -2 15 3 20 25 22 20 1 27 -2 24 -11 -4 -9 2 -13 16 -12 17 1 22 7 21
26 -1 14 5 29 13 33 11 7 12 12 2 23 -16 20 -30 18 -22 -4 6 -15 5 -15 -10 -3
-15 12 -15 11 -1 -18 8 -17 12 -36 8 -42 -10 -17 -34 47 -33 90 1 33 2 34 9
11 4 -14 9 -20 10 -15 6 35 6 55 -2 55 -5 0 -4 9 2 20 6 11 9 20 8 21 -2 0
-12 2 -23 4 -11 2 -41 7 -67 13 -27 5 -48 7 -48 3z m46 -148 c-3 -21 -31 -29
-41 -13 -5 8 3 14 42 29 1 1 0 -7 -1 -16z"/>
<path d="M298 223 c7 -3 16 -2 19 1 4 3 -2 6 -13 5 -11 0 -14 -3 -6 -6z"/>
<path d="M288 193 c6 -2 18 -2 25 0 6 3 1 5 -13 5 -14 0 -19 -2 -12 -5z"/>
<path d="M8 173 c7 -3 16 -2 19 1 4 3 -2 6 -13 5 -11 0 -14 -3 -6 -6z"/>
<path d="M150 166 c0 -22 19 -30 26 -12 3 9 10 13 15 10 5 -3 9 0 9 5 0 6 -11
11 -25 11 -15 0 -25 -6 -25 -14z"/>
<path d="M280 176 c0 -2 9 -6 20 -9 11 -3 18 -1 14 4 -5 9 -34 13 -34 5z"/>
<path d="M5 150 c-3 -6 1 -7 9 -4 18 7 21 14 7 14 -6 0 -13 -4 -16 -10z"/>
<path d="M14 124 c-18 -14 -18 -15 4 -4 12 6 22 13 22 15 0 8 -5 6 -26 -11z"/>
<path d="M280 120 c8 -5 20 -10 25 -10 6 0 3 5 -5 10 -8 5 -19 10 -25 10 -5 0
-3 -5 5 -10z"/>
<path d="M20 93 l-25 -28 29 25 c28 25 28 25 22 3 -4 -14 -3 -23 3 -23 17 0
21 16 8 34 -11 16 -15 15 -37 -11z"/>
<path d="M19 43 c-13 -16 -12 -17 4 -4 9 7 17 15 17 17 0 8 -8 3 -21 -13z"/>
<path d="M50 30 c0 -6 7 -10 15 -10 8 0 15 2 15 4 0 2 -7 6 -15 10 -8 3 -15 1
-15 -4z"/>
</g>
</svg>
